<svg width="427" height="441" viewBox="0 0 427 441" fill="none" xmlns="http://www.w3.org/2000/svg">
<path d="M1.34874e-06 48C1.34874e-06 21.4903 21.4903 6.68784e-06 48 6.68784e-06H79V180H1.34874e-06V48Z" fill="#7430C6"/>
<path d="M261 48C261 21.4903 239.51 6.68784e-06 213 6.68784e-06H182V62C182 88.5097 203.49 110 230 110H261V48Z" fill="#7430C6"/>
<path d="M427 62C427 88.5097 405.51 110 379 110H348V48C348 21.4903 369.49 6.68784e-06 396 6.68784e-06H427V62Z" fill="#7430C6"/>
<path d="M261 393C261 419.51 239.51 441 213 441H182V256H213C239.51 256 261 277.49 261 304V393Z" fill="#7430C6"/>
<path d="M348 393C348 419.51 369.49 441 396 441H427V223H348V393Z" fill="#7430C6"/>
<path d="M79 327C79 300.49 57.5097 279 31 279H1.34874e-06V348H79V327Z" fill="#7430C6"/>
<path d="M379 153C405.51 153 427 174.49 427 201V232L48 232C21.4903 232 -1.15337e-06 210.51 0 184L1.34874e-06 153L379 153Z" fill="#7430C6"/>
<path d="M48 441C21.4903 441 2.28811e-06 419.51 3.44688e-06 393L4.80194e-06 362H188V441H48Z" fill="#7430C6"/>
<path d="M48 6.68784e-06C21.4903 6.68784e-06 1.34874e-06 21.4903 1.34874e-06 48L4.80194e-06 79L105 79C131.51 79 153 57.5097 153 31V0L48 6.68784e-06Z" fill="#7430C6"/>
</svg>
