<svg width="819" height="815" viewBox="0 0 819 815" fill="none" xmlns="http://www.w3.org/2000/svg">
<ellipse cx="409.5" cy="407.5" rx="409.5" ry="407.5" fill="#E7D2F9"/>
<path d="M196 235C196 208.49 217.49 187 244 187H275V367H196V235Z" fill="#7430C6"/>
<path d="M457 235C457 208.49 435.51 187 409 187H378V249C378 275.51 399.49 297 426 297H457V235Z" fill="#7430C6"/>
<path d="M623 249C623 275.51 601.51 297 575 297H544V235C544 208.49 565.49 187 592 187H623V249Z" fill="#7430C6"/>
<path d="M457 580C457 606.51 435.51 628 409 628H378V443H409C435.51 443 457 464.49 457 491V580Z" fill="#7430C6"/>
<path d="M544 580C544 606.51 565.49 628 592 628H623V410H544V580Z" fill="#7430C6"/>
<path d="M275 514C275 487.49 253.51 466 227 466H196V535H275V514Z" fill="#7430C6"/>
<path d="M575 340C601.51 340 623 361.49 623 388V419L244 419C217.49 419 196 397.51 196 371L196 340L575 340Z" fill="#7430C6"/>
<path d="M244 628C217.49 628 196 606.51 196 580L196 549H384V628H244Z" fill="#7430C6"/>
<path d="M244 187C217.49 187 196 208.49 196 235L196 266L301 266C327.51 266 349 244.51 349 218V187L244 187Z" fill="#7430C6"/>
</svg>
